<?xml version="1.0" encoding="UTF-8" standalone="no"?>
<!-- Created with Inkscape (http://www.inkscape.org/) -->

<svg
   width="50"
   height="50"
   viewBox="0 0 13.229166 13.229167"
   version="1.1"
   id="svg1"
   xml:space="preserve"
   inkscape:version="1.3.2 (091e20e, 2023-11-25, custom)"
   sodipodi:docname="fire.svg"
   xmlns:inkscape="http://www.inkscape.org/namespaces/inkscape"
   xmlns:sodipodi="http://sodipodi.sourceforge.net/DTD/sodipodi-0.dtd"
   xmlns="http://www.w3.org/2000/svg"
   xmlns:svg="http://www.w3.org/2000/svg"><sodipodi:namedview
     id="namedview1"
     pagecolor="#686868"
     bordercolor="#000000"
     borderopacity="0.25"
     inkscape:showpageshadow="2"
     inkscape:pageopacity="0.0"
     inkscape:pagecheckerboard="true"
     inkscape:deskcolor="#565656"
     inkscape:document-units="px"
     inkscape:zoom="11.95881"
     inkscape:cx="18.56372"
     inkscape:cy="26.382223"
     inkscape:window-width="1920"
     inkscape:window-height="1017"
     inkscape:window-x="-8"
     inkscape:window-y="-8"
     inkscape:window-maximized="1"
     inkscape:current-layer="layer1" /><defs
     id="defs1" /><g
     inkscape:label="Layer 1"
     inkscape:groupmode="layer"
     id="layer1"><g
       id="g3"
       transform="matrix(1.1834748,0,0,1.1834748,-1.3913547,-0.70021735)"
       style="stroke-width:0.33534723;stroke-dasharray:none"><path
         style="display:inline;fill:none;fill-opacity:1;fill-rule:evenodd;stroke:#ffffff;stroke-width:0.33534723;stroke-linecap:square;stroke-dasharray:none;stroke-opacity:1"
         d="m 6.5488676,11.726013 c 0,0 3.0549578,-0.09579 3.9602954,-1.482345 C 11.6662,8.4716331 10.236967,6.1781503 9.8827346,6.3468324 c 0,0 -0.2143052,3.631341 -3.0019988,3.6977146 C 4.0930422,10.110921 4.203665,8.3852056 4.203665,8.3852056 c 0,0 -0.066374,-1.5044698 1.6150923,-1.5044698 1.681466,0 1.6372171,1.2168505 1.6372171,1.2168505 0,0 0.2433701,-2.1903306 -1.3717225,-2.8098181 C 4.4691596,4.6682808 4.358537,4.8895261 4.358537,4.8895261 c 0,0 -0.604469,-0.3002885 -0.5309894,-0.9513556 0.087674,-0.7768333 -0.5270607,1.8038741 -0.3761173,2.2567042 0,0 -3.36293209,4.8674013 3.0974373,5.5311383 z"
         id="path2"
         sodipodi:nodetypes="cscscscscscc" /><path
         style="fill:none;fill-opacity:1;fill-rule:evenodd;stroke:#ffffff;stroke-width:0.33534723;stroke-linecap:square;stroke-dasharray:none;stroke-opacity:1"
         d="m 9.8246966,6.7583901 c 0,0 0.3441774,-1.8773306 0.1720887,-2.3623076 C 9.8246966,3.9111054 9.6056748,3.6138614 9.6056748,3.6138614 c 0,0 0.2659552,1.3454203 -0.7196434,1.0325317 C 7.9004328,4.3335048 8.3697653,2.675196 8.3697653,2.675196 8.3710856,2.667274 7.2479988,3.6017159 6.6645236,3.003729 5.9796894,2.3018621 6.3203462,0.90737644 6.3203462,0.90737644 c 0,0 -1.1889761,0.95430976 -1.2359092,1.86168606 C 5.037504,3.6764391 4.8829574,4.8818458 4.8829574,4.8818458"
         id="path3"
         sodipodi:nodetypes="cscscscsc" /></g></g></svg>
