<?xml version="1.0" encoding="UTF-8" standalone="no"?>
<!-- Created with Inkscape (http://www.inkscape.org/) -->

<svg
   width="50"
   height="50"
   viewBox="0 0 13.229167 13.229167"
   version="1.1"
   id="svg1"
   inkscape:version="1.3.2 (091e20e, 2023-11-25, custom)"
   sodipodi:docname="dice.svg"
   inkscape:export-filename="dice.png"
   inkscape:export-xdpi="96"
   inkscape:export-ydpi="96"
   xmlns:inkscape="http://www.inkscape.org/namespaces/inkscape"
   xmlns:sodipodi="http://sodipodi.sourceforge.net/DTD/sodipodi-0.dtd"
   xmlns="http://www.w3.org/2000/svg"
   xmlns:svg="http://www.w3.org/2000/svg">
  <sodipodi:namedview
     id="namedview1"
     pagecolor="#474747"
     bordercolor="#000000"
     borderopacity="0.25"
     inkscape:showpageshadow="2"
     inkscape:pageopacity="0.0"
     inkscape:pagecheckerboard="true"
     inkscape:deskcolor="#d1d1d1"
     inkscape:document-units="px"
     inkscape:zoom="11.313709"
     inkscape:cx="15.909903"
     inkscape:cy="26.030368"
     inkscape:window-width="1920"
     inkscape:window-height="1017"
     inkscape:window-x="-8"
     inkscape:window-y="-8"
     inkscape:window-maximized="1"
     inkscape:current-layer="layer1" />
  <defs
     id="defs1">
    <inkscape:path-effect
       effect="powermask"
       id="path-effect36"
       is_visible="true"
       lpeversion="1"
       uri="#mask-powermask-path-effect36"
       invert="false"
       hide_mask="false"
       background="true"
       background_color="#ffffffff" />
    <inkscape:path-effect
       effect="powermask"
       id="path-effect26"
       is_visible="true"
       lpeversion="1"
       uri="#mask-powermask-path-effect26"
       invert="false"
       hide_mask="false"
       background="true"
       background_color="#ffffffff" />
    <inkscape:perspective
       sodipodi:type="inkscape:persp3d"
       inkscape:vp_x="-10.866473 : -24.868569 : 1"
       inkscape:vp_y="0 : 1000 : 0"
       inkscape:vp_z="67.223802 : -24.868569 : 1"
       inkscape:persp3d-origin="28.178664 : -33.201903 : 1"
       id="perspective1" />
    <filter
       id="mask-powermask-path-effect22_inverse"
       inkscape:label="filtermask-powermask-path-effect22"
       style="color-interpolation-filters:sRGB"
       height="100"
       width="100"
       x="-50"
       y="-50">
      <feColorMatrix
         id="mask-powermask-path-effect22_primitive1"
         values="1"
         type="saturate"
         result="fbSourceGraphic" />
      <feColorMatrix
         id="mask-powermask-path-effect22_primitive2"
         values="-1 0 0 0 1 0 -1 0 0 1 0 0 -1 0 1 0 0 0 1 0 "
         in="fbSourceGraphic" />
    </filter>
    <mask
       maskUnits="userSpaceOnUse"
       id="mask-powermask-path-effect36">
      <path
         id="mask-powermask-path-effect36_box"
         style="fill:#ffffff;fill-opacity:1"
         d="M 0.66284531,-0.57133102 H 12.611886 V 12.916832 H 0.66284531 Z" />
      <g
         id="g36"
         transform="matrix(0.94006689,0,0,0.94006689,0.41921493,-0.04540042)"
         style="">
        <g
           id="g30"
           inkscape:label="Divider">
          <rect
             style="fill:#000000;fill-opacity:1;fill-rule:evenodd;stroke-width:2.15293;stroke-linecap:square"
             id="rect28"
             width="13.229167"
             height="0.5291667"
             x="-4.17377"
             y="2.1565225"
             inkscape:transform-center-x="5.7113298"
             transform="rotate(30)"
             inkscape:transform-center-y="-3.2974378"
             d="M -4.17377,2.1565225 H 9.055397 V 2.6856892 H -4.17377 Z" />
          <rect
             style="fill:#000000;fill-opacity:1;fill-rule:evenodd;stroke-width:2.15293;stroke-linecap:square"
             id="rect29"
             width="13.229167"
             height="0.5291667"
             x="-15.630565"
             y="8.7711058"
             inkscape:transform-center-x="-5.7113301"
             transform="matrix(-0.8660254,0.5,0.5,0.8660254,0,0)"
             inkscape:transform-center-y="-3.2974379"
             d="M -15.630565,8.7711058 H -2.4013977 V 9.3002725 H -15.630565 Z" />
          <rect
             style="fill:#000000;fill-opacity:1;fill-rule:evenodd;stroke-width:3.28735;stroke-linecap:square"
             id="rect30"
             width="0.5291667"
             height="7.9375"
             x="6.3500004"
             y="6.3500004"
             d="M 6.3500004,6.3500004 H 6.8791671 V 14.2875 H 6.3500004 Z" />
        </g>
        <g
           id="g35"
           inkscape:label="Dice Faces">
          <ellipse
             style="display:inline;fill:#000000;fill-opacity:1;fill-rule:evenodd;stroke-width:2.56624;stroke-linecap:square"
             id="ellipse30"
             cx="1.010622"
             cy="12.73856"
             transform="matrix(0.6903619,-0.7234642,0.70213864,0.71204026,0,0)"
             rx="0.9065879"
             ry="0.69527793"
             d="M 1.9172099,12.73856 A 0.9065879,0.69527793 0 0 1 1.010622,13.433838 0.9065879,0.69527793 0 0 1 0.10403413,12.73856 0.9065879,0.69527793 0 0 1 1.010622,12.043282 0.9065879,0.69527793 0 0 1 1.9172099,12.73856 Z" />
          <ellipse
             style="fill:#000000;fill-opacity:1;fill-rule:evenodd;stroke-width:2.80914;stroke-linecap:square"
             id="ellipse31"
             cx="2.6302185"
             cy="6.0069699"
             rx="0.82175052"
             ry="0.79375005"
             transform="matrix(0.96592583,0.25881905,0,1,0,0)"
             d="M 3.451969,6.0069699 A 0.82175052,0.79375005 0 0 1 2.6302185,6.80072 0.82175052,0.79375005 0 0 1 1.808468,6.0069699 a 0.82175052,0.79375005 0 0 1 0.8217505,-0.79375 0.82175052,0.79375005 0 0 1 0.8217505,0.79375 z" />
          <ellipse
             style="fill:#000000;fill-opacity:1;fill-rule:evenodd;stroke-width:2.80914;stroke-linecap:square"
             id="ellipse32"
             cx="4.8163915"
             cy="8.6948757"
             rx="0.82175052"
             ry="0.79375005"
             transform="matrix(0.96592583,0.25881905,0,1,0,0)"
             d="M 5.638142,8.6948757 A 0.82175052,0.79375005 0 0 1 4.8163915,9.4886258 0.82175052,0.79375005 0 0 1 3.9946409,8.6948757 a 0.82175052,0.79375005 0 0 1 0.8217506,-0.79375 0.82175052,0.79375005 0 0 1 0.8217505,0.79375 z" />
          <ellipse
             style="fill:#000000;fill-opacity:1;fill-rule:evenodd;stroke-width:2.5454;stroke-linecap:square"
             id="ellipse33"
             cx="4.2333336"
             cy="3.2874482"
             rx="0.79375005"
             ry="0.6746875"
             d="M 5.0270836,3.2874482 A 0.79375005,0.6746875 0 0 1 4.2333336,3.9621357 0.79375005,0.6746875 0 0 1 3.4395835,3.2874482 0.79375005,0.6746875 0 0 1 4.2333336,2.6127607 0.79375005,0.6746875 0 0 1 5.0270836,3.2874482 Z" />
          <ellipse
             style="fill:#000000;fill-opacity:1;fill-rule:evenodd;stroke-width:2.5454;stroke-linecap:square"
             id="ellipse34"
             cx="8.9958334"
             cy="3.2874482"
             rx="0.79375005"
             ry="0.6746875"
             d="M 9.7895834,3.2874482 A 0.79375005,0.6746875 0 0 1 8.9958334,3.9621357 0.79375005,0.6746875 0 0 1 8.2020833,3.2874482 0.79375005,0.6746875 0 0 1 8.9958334,2.6127607 0.79375005,0.6746875 0 0 1 9.7895834,3.2874482 Z" />
          <ellipse
             style="fill:#000000;fill-opacity:1;fill-rule:evenodd;stroke-width:2.5454;stroke-linecap:square"
             id="ellipse35"
             cx="6.6145835"
             cy="3.2874482"
             rx="0.79375005"
             ry="0.6746875"
             d="M 7.4083335,3.2874482 A 0.79375005,0.6746875 0 0 1 6.6145835,3.9621357 0.79375005,0.6746875 0 0 1 5.8208334,3.2874482 0.79375005,0.6746875 0 0 1 6.6145835,2.6127607 0.79375005,0.6746875 0 0 1 7.4083335,3.2874482 Z" />
        </g>
      </g>
    </mask>
    <filter
       id="mask-powermask-path-effect36_inverse"
       inkscape:label="filtermask-powermask-path-effect36"
       style="color-interpolation-filters:sRGB"
       height="100"
       width="100"
       x="-50"
       y="-50">
      <feColorMatrix
         id="mask-powermask-path-effect36_primitive1"
         values="1"
         type="saturate"
         result="fbSourceGraphic" />
      <feColorMatrix
         id="mask-powermask-path-effect36_primitive2"
         values="-1 0 0 0 1 0 -1 0 0 1 0 0 -1 0 1 0 0 0 1 0 "
         in="fbSourceGraphic" />
    </filter>
  </defs>
  <g
     inkscape:label="Layer 1"
     inkscape:groupmode="layer"
     id="layer1">
    <path
       sodipodi:type="star"
       style="display:inline;fill:#ffffff;fill-opacity:1;fill-rule:evenodd;stroke-width:2.64583;stroke-linecap:square"
       id="path22"
       inkscape:flatsided="true"
       sodipodi:sides="6"
       sodipodi:cx="6.6373658"
       sodipodi:cy="6.1727505"
       sodipodi:r1="5.7440815"
       sodipodi:r2="4.9745202"
       sodipodi:arg1="0.52359878"
       sodipodi:arg2="1.0471976"
       inkscape:rounded="0"
       inkscape:randomized="0"
       transform="matrix(1.0637541,0,0,1.0637541,-0.4459416,0.04829488)"
       mask="url(#mask-powermask-path-effect36)"
       inkscape:path-effect="#path-effect36"
       d="M 11.611886,9.0447912 6.6373658,11.916832 1.6628453,9.0447912 l 0,-5.7440815 4.9745205,-2.87204072 4.9745202,2.87204072 z" />
  </g>
</svg>
